# xmcd
#
# Track frame offsets:
#	150
#	14452
#	32138
#	52597
#	70444
#	92421
#	119079
#	135016
#	160214
#	182315
#	200308
#	220348
#	249099
#	282647
#	293956
#	318308
#
# Disc length: 4692 seconds
#
# Revision: 1
# Processed by: cddbd v1.5.1PL0 Copyright (c) Steve Scherf et al.
# Submitted via: EasyCDDAExtractor 8.0.2.1
#
DISCID=dd125210
DTITLE=Gillan - Wroclaw 07-12-91
DYEAR=1991
DGENRE=Hard Rock
TTITLE0=Dancing Nylon Shirt (Part 2)
TTITLE1=Candy Horizon
TTITLE2=Dirty Dog
TTITLE3=Black Night
TTITLE4=Toolbox
TTITLE5=Don't Hold Me Back
TTITLE6=Everything I Need
TTITLE7=No One Cane Over The Brazos
TTITLE8=Bed Of Nails
TTITLE9=Maybe I'm A Leo
TTITLE10=Hang Me Out To Dry
TTITLE11=When A Blind Man Cries
TTITLE12=Dancing Nylon Shirt (Part 1)
TTITLE13=New Orleans
TTITLE14=Blue Steel (Wake Up This Morning)
TTITLE15=Smoke On The Water
EXTD=
EXTT0=
EXTT1=
EXTT2=
EXTT3=
EXTT4=
EXTT5=
EXTT6=
EXTT7=
EXTT8=
EXTT9=
EXTT10=
EXTT11=
EXTT12=
EXTT13=
EXTT14=
EXTT15=
PLAYORDER=
